<svg width="40" height="41" viewBox="0 0 40 41" fill="none" xmlns="http://www.w3.org/2000/svg">
<path d="M29.1667 10.9355H29.1834M11.6667 3.43555H28.3334C32.9357 3.43555 36.6667 7.16651 36.6667 11.7689V28.4355C36.6667 33.0379 32.9357 36.7689 28.3334 36.7689H11.6667C7.06433 36.7689 3.33337 33.0379 3.33337 28.4355V11.7689C3.33337 7.16651 7.06433 3.43555 11.6667 3.43555ZM26.6667 19.0522C26.8724 20.4393 26.6355 21.8559 25.9896 23.1006C25.3438 24.3452 24.3219 25.3546 23.0694 25.985C21.8169 26.6154 20.3975 26.8349 19.013 26.6121C17.6286 26.3893 16.3496 25.7357 15.3581 24.7441C14.3666 23.7526 13.7129 22.4737 13.4902 21.0892C13.2674 19.7048 13.4868 18.2854 14.1173 17.0328C14.7477 15.7803 15.757 14.7584 17.0017 14.1126C18.2463 13.4668 19.663 13.2299 21.05 13.4355C22.4649 13.6454 23.7748 14.3047 24.7862 15.3161C25.7976 16.3275 26.4569 17.6373 26.6667 19.0522Z" stroke="white" stroke-width="2" stroke-linecap="round" stroke-linejoin="round"/>
</svg>
