<svg width="36" height="36" viewBox="0 0 36 36" fill="none" xmlns="http://www.w3.org/2000/svg">
<path d="M27.1667 8.93555H27.1834M9.66671 1.43555H26.3334C30.9357 1.43555 34.6667 5.16651 34.6667 9.76888V26.4355C34.6667 31.0379 30.9357 34.7689 26.3334 34.7689H9.66671C5.06433 34.7689 1.33337 31.0379 1.33337 26.4355V9.76888C1.33337 5.16651 5.06433 1.43555 9.66671 1.43555ZM24.6667 17.0522C24.8724 18.4393 24.6355 19.8559 23.9896 21.1006C23.3438 22.3452 22.3219 23.3546 21.0694 23.985C19.8169 24.6154 18.3975 24.8349 17.013 24.6121C15.6286 24.3893 14.3496 23.7357 13.3581 22.7441C12.3666 21.7526 11.7129 20.4737 11.4902 19.0892C11.2674 17.7048 11.4868 16.2854 12.1173 15.0328C12.7477 13.7803 13.757 12.7584 15.0017 12.1126C16.2463 11.4668 17.663 11.2299 19.05 11.4355C20.4649 11.6454 21.7748 12.3047 22.7862 13.3161C23.7976 14.3275 24.4569 15.6373 24.6667 17.0522Z" stroke="white" stroke-width="2" stroke-linecap="round" stroke-linejoin="round"/>
</svg>
